<svg width="65" height="73" viewBox="0 0 65 73" fill="none" xmlns="http://www.w3.org/2000/svg">
<g clip-path="url(#clip0_36_369)">
<path fill-rule="evenodd" clip-rule="evenodd" d="M21.8422 15.3996H28.6131L38.3495 52.0337H32.4683L30.0465 41.5986H20.5573L18.086 52.0339H12.8965L21.8423 17.1204V15.3996H21.8422ZM28.712 36.2146L25.3511 20.728L21.8915 36.2143H28.712V36.2146ZM48.432 24.8083H43.0942V52.0339H48.432V24.8086V24.8083ZM45.6942 14.2309C43.965 14.2309 42.5632 15.7871 42.5632 17.7069C42.5632 19.6267 43.965 21.1831 45.6942 21.1831C47.4235 21.1831 48.8254 19.6269 48.8254 17.7071C48.8254 15.7872 47.4236 14.2309 45.6942 14.2309ZM65 73H0V0H65V73Z" fill="white"/>
</g>
<defs>
<clipPath id="clip0_36_369">
<rect width="65" height="73" fill="white"/>
</clipPath>
</defs>
</svg>
