<svg width="65" height="73" viewBox="0 0 65 73" fill="none" xmlns="http://www.w3.org/2000/svg">
<g clip-path="url(#clip0_36_367)">
<path d="M32.5 0C14.5458 0 0 16.336 0 36.5C0 56.664 14.5458 73 32.5 73C50.4542 73 65 56.664 65 36.5C65 16.336 50.4542 0 32.5 0ZM18.852 23.36C20.8934 23.36 22.4819 25.0322 22.6606 27.0077C22.8536 28.7894 22.1955 30.3475 20.4405 31.2851C19.5081 31.8075 19.1384 31.8075 18.9475 31.4972C18.852 31.2851 18.9475 31.0843 19.1364 30.8676C20.8102 29.3141 20.8102 28.0548 20.6172 26.2846C20.5217 25.1325 19.7823 24.4048 19.0409 24.4048C15.7828 24.4048 11.1495 32.5329 11.7934 38.4847C12.0798 40.7773 13.2864 43.4875 15.8783 43.4875C16.7152 43.4875 17.6475 43.1772 18.4803 42.7643C19.8352 41.9545 20.6497 41.3385 21.4541 40.3279C21.253 37.6292 23.3573 34.1024 26.4672 34.1024C27.8647 34.1024 28.9758 34.732 29.0692 35.8841C29.25 37.4422 28.0434 37.6543 27.6737 37.6543C27.302 37.6543 26.648 37.5471 26.648 37.1319C26.5647 36.7144 27.4828 36.9198 27.3975 35.9799C27.302 35.3503 26.7414 35.1495 26.193 35.1495C24.2348 35.1495 23.1238 38.179 23.4 40.0428C23.4955 40.8846 23.8631 41.7195 24.6167 41.7195C25.1672 41.7195 26.0041 40.7796 26.2762 39.4268C26.4652 38.487 27.2086 37.8573 27.8627 37.8573C28.1389 37.8573 28.3177 37.9646 28.4131 38.3797V38.7972C28.3298 39.2147 28.0414 40.4739 28.1389 40.7796C28.1389 40.9963 28.2344 41.302 28.602 41.302C28.8458 41.302 29.7781 40.7545 30.7084 39.8991C31.0152 38.1037 31.3848 35.9548 31.3848 35.7768C31.4803 35.04 31.7566 34.3146 33.0566 34.3146C33.3409 34.3146 33.5217 34.4218 33.6172 34.837V35.2544L33.2455 37.1319C34.4541 35.3617 36.2192 34.1138 37.3303 34.1138C37.7955 34.1138 38.1672 34.4218 38.1672 34.9442C38.1672 35.2544 38.1672 35.7768 37.9742 36.3015C37.6066 37.4422 37.1394 39.2238 36.8631 40.7796C36.8631 41.1971 36.9586 41.6123 37.4237 41.6123C37.8889 41.6123 39.2762 40.9941 40.3873 39.3196L40.4097 39.3082C40.4097 39.1052 40.3873 38.9044 40.3873 38.7037C40.3873 37.4444 40.4828 36.411 40.6738 35.6742C40.8627 34.8415 41.7848 34.1161 42.3455 34.1161C42.6197 34.1161 42.9061 34.3168 42.9061 34.6271C42.9061 34.7343 42.9061 34.9465 42.8106 35.0446C42.4389 36.411 42.1525 37.6566 42.1525 38.9044C42.1525 39.6413 42.25 40.6747 42.4389 41.3043C42.4389 41.4115 42.5222 41.5165 42.6177 41.5165C42.8106 41.5165 44.1106 40.1637 45.0308 38.3797C44.1939 37.7615 43.7287 36.7167 43.7287 35.4689C43.7287 33.272 44.9475 32.1291 46.0586 32.1291C46.9909 32.1291 47.7303 32.8568 47.7303 34.3168C47.7303 35.2567 47.4541 36.3038 46.9909 37.2391H47.2652C47.8583 37.2642 48.4412 36.9905 48.8414 36.516C48.9298 36.3572 49.0596 36.233 49.2131 36.1601C50.1231 34.8643 51.4556 33.9039 53.0319 33.9039C54.3319 33.9039 55.5283 34.5336 55.6238 35.6742C55.8127 37.2414 54.598 37.5517 54.2262 37.5517C53.8586 37.5517 53.2025 37.4444 53.2025 37.0293C53.2025 36.6141 54.0373 36.8171 53.952 35.8886C53.8566 35.259 53.2959 35.0468 52.7353 35.0468C50.8828 35.0468 49.6783 37.7547 49.9505 39.9538C50.0459 40.7842 50.4156 41.7241 51.1591 41.7241C51.7197 41.7241 52.5545 40.7842 52.9242 39.4314C53.103 38.601 53.8566 37.8619 54.5005 37.8619C54.7848 37.8619 54.9656 37.9691 55.0611 38.3843C55.0611 38.601 55.0611 39.0139 54.6894 40.3713C54.2242 41.3089 54.2242 41.8313 54.3217 42.2488C54.405 43.0791 54.7767 43.7087 55.1566 44.019C55.2244 44.1158 55.2849 44.2188 55.3373 44.327C55.3373 44.5437 55.2398 44.7558 54.9656 44.7558C54.8702 44.7558 54.7848 44.7558 54.6894 44.6486C53.2939 44.019 52.7333 42.9719 52.5525 41.9271C51.9919 42.6639 51.348 43.0791 50.5964 43.0791C49.3878 43.0791 48.1934 41.8313 48.0045 40.2618C47.9468 39.5962 48.0153 38.9244 48.2056 38.2908C47.6552 38.6832 47.062 38.909 46.5136 38.909H46.0586C44.8419 40.8914 43.5398 42.2488 42.6197 42.867C42.3028 43.0567 41.9526 43.1657 41.5939 43.1863C41.4152 43.1863 41.1308 43.0791 41.0434 42.867C40.7814 42.4039 40.6209 41.6784 40.5153 40.8481C39.2133 42.4381 37.4136 43.2936 36.5808 43.2936C35.6484 43.2936 35.1 42.6639 35.0045 41.6214V40.4808C35.2788 38.1881 36.0303 36.8217 36.0303 36.4042C36.0249 36.3493 36.0027 36.2981 35.9675 36.2594C35.9324 36.2208 35.8864 36.197 35.8373 36.192C35.1934 36.192 33.0566 38.6991 32.6848 40.3736L32.4005 41.7263C32.2197 42.6639 31.3848 43.2936 30.8242 43.2936C30.548 43.2936 30.3591 43.1863 30.2738 42.7734V42.356L30.3895 41.6442C29.2134 42.5818 28.0394 43.1863 27.4788 43.1863C26.6439 43.1863 26.1788 42.6639 26.0955 41.9271C25.5348 42.7734 24.8869 43.1863 24.0541 43.1863C23.0892 43.1863 22.1609 42.4495 21.7161 41.3819C21.0478 42.2237 20.2963 43.0677 19.4086 43.7087C18.1086 44.6486 16.6278 45.3718 14.8586 45.3718C13.2823 45.3718 11.8869 44.4319 11.1455 43.6015C10.0242 42.4495 9.38031 40.6792 9.28484 39.0139C8.73438 33.9062 11.5172 27.3339 15.7788 24.4117C16.8045 23.782 17.8323 23.3691 18.848 23.3691L18.852 23.36ZM45.3111 33.377C45.0369 33.377 44.848 33.8994 44.848 34.4081C44.848 35.2544 45.2156 36.1898 45.6828 36.7144C45.8691 36.1436 45.966 35.5408 45.9692 34.9328C45.9692 33.9017 45.5975 33.3792 45.3111 33.3792V33.377Z" fill="white"/>
</g>
<defs>
<clipPath id="clip0_36_367">
<rect width="65" height="73" fill="white"/>
</clipPath>
</defs>
</svg>
