<svg width="73" height="73" viewBox="0 0 73 73" fill="none" xmlns="http://www.w3.org/2000/svg">
<path d="M15.3057 36.5882C20.3046 34.9564 20.5754 28.8441 27.1636 27.5545C32.4333 26.5203 35.5997 30.1521 36.3859 34.0074C37.0445 37.2346 35.0689 45.625 24.528 45.625C11.353 45.625 6.96238 37.2346 6.08333 34.0074C7.40038 35.2986 11.353 37.8794 15.3057 36.5882Z" stroke="white" stroke-width="3" stroke-linejoin="round"/>
<path d="M57.6943 36.5882C52.6938 34.9564 52.4246 28.8441 45.8364 27.5545C40.5667 26.5203 37.4003 30.1521 36.6141 34.0074C35.9555 37.2346 37.9311 45.625 48.472 45.625C61.647 45.625 66.0376 37.2346 66.9167 34.0074C65.5996 35.2986 61.647 37.8794 57.6943 36.5882V36.5882Z" stroke="white" stroke-width="3" stroke-linejoin="round"/>
</svg>
