<svg width="65" height="73" viewBox="0 0 65 73" fill="none" xmlns="http://www.w3.org/2000/svg">
<path fill-rule="evenodd" clip-rule="evenodd" d="M22.7906 0C16.1633 0 10.8333 6.24454 10.8333 13.8943C10.8333 18.545 12.805 22.6756 15.8356 25.1972C14.2737 26.5114 13.0076 28.2184 12.1389 30.1812C11.2702 32.144 10.8231 34.3081 10.8333 36.5C10.8333 41.1538 12.805 45.2813 15.8356 47.8028C14.2737 49.1171 13.0076 50.8241 12.1389 52.7869C11.2702 54.7497 10.8231 56.9138 10.8333 59.1057C10.8333 66.7555 16.1633 73 22.7906 73C29.4152 73 34.7479 66.7555 34.7479 59.1057V47.3587C36.8424 49.32 39.4824 50.3951 42.2094 50.3974C48.8367 50.3943 54.1667 44.1498 54.1667 36.5C54.1775 34.308 53.7307 32.1437 52.8619 30.1807C51.9932 28.2178 50.7268 26.5109 49.1644 25.1972C50.7263 23.8829 51.9924 22.1759 52.8611 20.2131C53.7298 18.2503 54.1769 16.0862 54.1667 13.8943C54.1667 6.24454 48.8367 0 42.2094 0H22.7906ZM15.3265 13.8943C15.3265 9.05504 18.6902 5.17996 22.7906 5.17996H30.2521V22.6087H22.7906C18.6902 22.6087 15.3265 18.7306 15.3265 13.8943ZM42.2094 22.6057H34.7479V5.17692H42.2094C46.3125 5.17692 49.6735 9.05504 49.6735 13.8943C49.6735 18.7306 46.3125 22.6057 42.2094 22.6057ZM15.3292 36.5C15.3292 31.6638 18.6929 27.7856 22.7933 27.7856H30.2548V45.2144H22.7906C18.6875 45.2144 15.3265 41.3363 15.3265 36.5H15.3292ZM34.7479 36.5C34.7479 31.6638 38.1117 27.7856 42.2121 27.7856C46.3152 27.7856 49.6762 31.6607 49.6762 36.5C49.6762 41.3363 46.3152 45.2144 42.2121 45.2144C38.1117 45.2144 34.7506 41.3393 34.7506 36.5H34.7479ZM15.3292 59.1057C15.3292 54.2694 18.6929 50.3943 22.7933 50.3943H30.2548V59.1057C30.2548 63.945 26.8965 67.82 22.7933 67.82C18.6929 67.82 15.3292 63.945 15.3292 59.1057Z" fill="white"/>
</svg>
