<svg width="91" height="91" viewBox="0 0 91 91" fill="none" xmlns="http://www.w3.org/2000/svg">
<path d="M13 9L18.8471 74.507L45.4956 82L72.0378 74.507L78 9H13ZM65.7123 24.5388L65.287 28.6802L65.1364 30.3911H34.0052L34.7316 38.6562H64.4188L64.1265 40.7883L62.2483 62.0391L62.0977 63.4605L45.531 67.9879V68.0142H45.4247L45.3981 68.023V68.0142H45.3893L28.6808 63.4517L27.6708 50.7644H35.7416L36.3174 57.187L45.3893 59.6174H45.4247L54.4611 57.1958L55.471 46.7898H45.3981V46.781H27.2456L25.2257 24.5388L25.0751 22.4067H65.854L65.7123 24.5388Z" fill="white"/>
</svg>
