<svg width="73" height="73" viewBox="0 0 73 73" fill="none" xmlns="http://www.w3.org/2000/svg">
<path d="M36.5 49.9593C43.9334 49.9593 49.9594 43.9333 49.9594 36.4999C49.9594 29.0665 43.9334 23.0405 36.5 23.0405C29.0666 23.0405 23.0406 29.0665 23.0406 36.4999C23.0406 43.9333 29.0666 49.9593 36.5 49.9593Z" fill="white"/>
<path d="M36.5 2.28125C17.6021 2.28125 2.28125 17.6021 2.28125 36.5C2.28125 55.3979 17.6021 70.7188 36.5 70.7188C55.3979 70.7188 70.7188 55.3979 70.7188 36.5C70.7188 17.6021 55.3979 2.28125 36.5 2.28125ZM36.5 68.4375C18.8899 68.4375 4.5625 54.1101 4.5625 36.5C4.5625 18.8899 18.8899 4.5625 36.5 4.5625C54.1101 4.5625 68.4375 18.8899 68.4375 36.5C68.4375 54.1101 54.1101 68.4375 36.5 68.4375Z" fill="white"/>
</svg>
