<svg width="65" height="73" viewBox="0 0 65 73" fill="none" xmlns="http://www.w3.org/2000/svg">
<g clip-path="url(#clip0_36_357)">
<path fill-rule="evenodd" clip-rule="evenodd" d="M0 0H65V73H0V0ZM49.6898 61.1983C46.6754 61.1983 44.9719 59.4342 43.6637 57.0312L38.6994 60.2706C40.4923 64.2491 44.1567 67.2847 49.8306 67.2847C55.6319 67.2847 59.9517 63.9024 59.9517 57.7248C59.9517 51.9973 57.0212 49.4514 51.8321 46.9481L50.3046 46.2151C47.6829 44.9376 46.5481 44.1072 46.5481 42.048C46.5481 40.3842 47.6856 39.1097 49.4731 39.1097C51.2254 39.1097 52.3548 39.9401 53.4029 42.048L58.1588 38.62C56.1465 34.6446 53.3569 33.1268 49.4731 33.1268C44.0185 33.1268 40.5275 37.0445 40.5275 42.191C40.5275 47.7724 43.4525 50.4156 47.8617 52.5235L49.3892 53.2596C52.176 54.6283 53.8363 55.4618 53.8363 57.813C53.8363 59.7779 52.2194 61.1983 49.6898 61.1983ZM26.019 61.1527C23.92 61.1527 23.0452 59.5406 22.0865 57.6244L17.114 61.0067C18.5548 64.4316 21.3877 67.2725 26.2762 67.2725C31.6902 67.2725 35.3979 64.0393 35.3979 56.937V33.5161H29.2906V56.8457C29.2906 60.2737 28.0231 61.1527 26.0162 61.1527H26.019Z" fill="white"/>
</g>
<defs>
<clipPath id="clip0_36_357">
<rect width="65" height="73" fill="white"/>
</clipPath>
</defs>
</svg>
