<svg width="100" height="100" viewBox="0 0 100 100" fill="none" xmlns="http://www.w3.org/2000/svg">
<path d="M83.0833 23.2918V76.6252C83.0833 78.4863 82.5417 80.1529 81.4583 81.6252C80.375 83.0696 78.9167 84.0418 77.0833 84.5418L53.2083 91.4168C52.875 91.5002 52.5 91.5835 52.0833 91.6668H51.1667C50.25 91.6668 49.4167 91.5418 48.6667 91.2918C47.9167 91.0418 47.1528 90.7085 46.375 90.2918L30.75 81.4585C30.1667 81.1252 29.7083 80.6946 29.375 80.1668C29.0417 79.639 28.875 79.0418 28.875 78.3752C28.875 77.3752 29.2361 76.5279 29.9583 75.8335C30.6528 75.1391 31.5 74.7918 32.5 74.7918H52.75V25.5835L37.5 31.0002C36.3056 31.4446 35.3333 32.2224 34.5833 33.3335C33.8333 34.3891 33.4583 35.5696 33.4583 36.8752V64.9168C33.4583 66.0835 33.1667 67.1391 32.5833 68.0835C32.0278 69.0279 31.2361 69.7779 30.2083 70.3335L23.0417 74.2502C22.375 74.6113 21.7083 74.7918 21.0417 74.7918C19.9028 74.7918 18.9306 74.389 18.125 73.5835C17.3194 72.7779 16.9167 71.7918 16.9167 70.6252V31.1252C16.9167 29.6807 17.2917 28.3335 18.0417 27.0835C18.8194 25.6946 19.8333 24.6391 21.0833 23.9168L46.75 9.3335C47.3333 9.00016 47.9583 8.75016 48.625 8.5835C49.2917 8.41683 49.9583 8.3335 50.625 8.3335C51.0972 8.3335 51.5278 8.37516 51.9167 8.4585C52.3056 8.51405 52.7361 8.61127 53.2083 8.75016L77.0833 15.3752C78 15.6252 78.8194 16.0002 79.5417 16.5002C80.2639 17.0002 80.8889 17.5974 81.4167 18.2918C81.9722 19.0141 82.3889 19.7918 82.6667 20.6252C82.9444 21.4863 83.0833 22.3752 83.0833 23.2918M77.5833 76.6252V23.2918C77.5833 22.6529 77.4167 22.0974 77.0833 21.6252C76.6667 21.0974 76.1528 20.7779 75.5417 20.6668L63.7917 17.4168C62.9306 17.1668 62.0139 16.9168 61.0417 16.6668C60.125 16.3613 59.2222 16.0974 58.3333 15.8752V84.2085L75.5417 79.1668C76.1528 79.0557 76.6667 78.7641 77.0833 78.2918C77.4167 77.8196 77.5833 77.264 77.5833 76.6252Z" fill="white"/>
</svg>
