<svg width="65" height="73" viewBox="0 0 65 73" fill="none" xmlns="http://www.w3.org/2000/svg">
<g clip-path="url(#clip0_36_371)">
<path fill-rule="evenodd" clip-rule="evenodd" d="M65 73H0V0H65V73ZM51.595 30.9415V25.2797C50.7647 24.8645 46.0102 23.337 42.2541 24.9468C36.8433 27.2654 37.0377 34.2503 39.0909 36.9916C41.7512 40.5435 48.3689 41.8678 47.286 45.3541C46.7252 47.1594 44.1073 47.4737 41.7993 46.8676C39.65 46.3032 37.7812 44.8735 37.7812 44.8735V50.8682C37.7812 50.8682 39.6284 52.0248 41.8955 52.2999C44.8019 52.6525 48.4449 51.9867 50.27 50.1648C53.5187 46.9216 54.0177 39.7371 47.8611 36.4009C42.7379 33.6249 42.8222 32.8326 42.8581 31.4087C42.9063 29.5016 46.4717 28.3276 51.595 30.9415ZM23.9675 15.0527C28.2302 15.2192 34.4947 17.4256 34.4947 26.8339C34.4947 36.2422 26.83 39.3295 19.8363 38.6568V51.9783H14.6263V15.1774C14.6263 15.1774 19.7045 14.8862 23.9674 15.0527H23.9675ZM25.3204 32.8286C27.567 31.908 29.0272 29.9289 29.0272 26.8546C29.0272 23.5951 27.5412 21.3879 25.2685 20.7644C22.8074 20.089 19.8363 20.4871 19.8363 20.4871V33.3254C19.8363 33.3254 23.9489 33.3907 25.3204 32.8286Z" fill="white"/>
</g>
<defs>
<clipPath id="clip0_36_371">
<rect width="65" height="73" fill="white"/>
</clipPath>
</defs>
</svg>
