<svg width="73" height="73" viewBox="0 0 73 73" fill="none" xmlns="http://www.w3.org/2000/svg">
<path d="M48.4461 56.1538C52.629 56.1538 56.0199 52.763 56.0199 48.5801C56.0199 44.3972 52.629 41.0063 48.4461 41.0063C44.2633 41.0063 40.8724 44.3972 40.8724 48.5801C40.8724 52.763 44.2633 56.1538 48.4461 56.1538Z" stroke="white" stroke-width="3" stroke-linecap="round" stroke-linejoin="round"/>
<path d="M55.1348 6.84375H41.7575L43.651 36.1487H53.2413L55.1348 6.84375Z" stroke="white" stroke-width="3" stroke-linecap="round" stroke-linejoin="round"/>
<path d="M24.5539 31.9937C28.7367 31.9937 32.1276 28.6028 32.1276 24.4199C32.1276 20.2371 28.7367 16.8462 24.5539 16.8462C20.371 16.8462 16.9801 20.2371 16.9801 24.4199C16.9801 28.6028 20.371 31.9937 24.5539 31.9937Z" stroke="white" stroke-width="3" stroke-linecap="round" stroke-linejoin="round"/>
<path d="M17.8652 66.156H31.2425L29.349 36.8511H19.7587L17.8652 66.156Z" stroke="white" stroke-width="3" stroke-linecap="round" stroke-linejoin="round"/>
</svg>
