<svg width="65" height="73" viewBox="0 0 65 73" fill="none" xmlns="http://www.w3.org/2000/svg">
<g clip-path="url(#clip0_36_361)">
<path d="M65 36.5C65 16.352 50.44 0 32.5 0C14.56 0 0 16.352 0 36.5C0 56.648 14.56 73 32.5 73C50.44 73 65 56.648 65 36.5ZM32.5 3.6865C48.6525 3.6865 61.7175 18.3595 61.7175 36.5C61.7175 54.6405 48.6525 69.3135 32.5 69.3135C16.3475 69.3135 3.2825 54.6405 3.2825 36.5C3.2825 18.3595 16.3475 3.6865 32.5 3.6865ZM26.0325 54.093L16.12 24.1265C17.7125 24.017 19.5325 23.8345 19.5325 23.8345C20.93 23.652 20.7675 20.148 19.3375 20.221C19.3375 20.221 15.145 20.586 12.415 20.586C11.9275 20.586 11.3425 20.586 10.725 20.5495C15.405 12.629 23.4 7.4095 32.5 7.4095C39.2925 7.4095 45.4675 10.293 50.0825 15.038C48.1325 14.746 45.37 16.3155 45.37 20.221C45.37 22.63 46.605 24.674 47.9375 27.083C48.945 29.054 49.5625 31.536 49.5625 35.1495C49.5625 40.0405 45.435 51.5015 45.435 51.5015L36.6275 24.1265C38.1875 24.017 39.065 23.5425 39.065 23.5425C40.4625 23.36 40.3 19.5275 38.9025 19.6005C38.9025 19.6005 34.6775 20.002 31.9475 20.002C29.4125 20.002 25.09 19.6005 25.09 19.6005C23.6925 19.5275 23.53 23.4695 24.9275 23.5425L27.6575 23.8345L31.2975 34.9305L26.0325 54.093ZM45.5975 61.9405L54.08 36.5C54.08 36.5 56.2575 30.3315 55.3475 22.5935C57.395 26.7545 58.4025 31.4265 58.4025 36.5C58.4025 47.304 53.3325 56.867 45.5975 61.9405ZM8.71 24.7105L21.125 62.9625C12.4475 58.2175 6.5975 48.0705 6.5975 36.5C6.5975 32.266 7.2475 28.3605 8.71 24.7105ZM32.9225 41.245L40.365 64.0575C37.9275 65.043 35.2625 65.5905 32.5 65.5905C30.16 65.5905 27.9175 65.189 25.805 64.4955L32.9225 41.245Z" fill="white"/>
</g>
<defs>
<clipPath id="clip0_36_361">
<rect width="65" height="73" fill="white"/>
</clipPath>
</defs>
</svg>
